<svg width="24" height="24" viewBox="0 0 24 24" fill="none" xmlns="http://www.w3.org/2000/svg">
<path fill-rule="evenodd" clip-rule="evenodd" d="M4.33996 11.1745C3.94943 10.784 3.94943 10.1508 4.33996 9.76029C5.51153 8.58872 7.41103 8.58872 8.5826 9.76029L9.2897 10.4674L13.5323 14.71L14.2395 15.4171C15.411 16.5887 15.411 18.4882 14.2395 19.6598C13.8489 20.0503 13.2158 20.0503 12.8252 19.6598L8.93615 15.7707L8.22904 15.0636L4.33996 11.1745ZM13.5997 18.8853C14.3435 18.1415 14.3435 16.9355 13.5997 16.1916L7.80815 10.4001C7.06429 9.6562 5.85826 9.6562 5.11441 10.4001C5.07721 10.4373 5.07721 10.4976 5.11441 10.5347L13.465 18.8853C13.5022 18.9225 13.5625 18.9225 13.5997 18.8853Z" fill="#fff"/>
<path fill-rule="evenodd" clip-rule="evenodd" d="M13.5323 4.81055C13.1418 4.42002 13.1418 3.78686 13.5323 3.39633C14.3134 2.61528 15.5797 2.61528 16.3608 3.39633L20.6034 7.63897C21.3845 8.42002 21.3845 9.68635 20.6034 10.4674C20.2129 10.8579 19.5797 10.8579 19.1892 10.4674L18.4821 9.76029L17.775 9.05319L14.9466 6.22476L14.2395 5.51765L13.5323 4.81055ZM15.5894 4.03916C15.2344 3.68414 14.6588 3.68414 14.3037 4.03916C14.2682 4.07466 14.2682 4.13222 14.3037 4.16772L19.832 9.69601C19.8675 9.73151 19.9251 9.73151 19.9606 9.69601C20.3156 9.34099 20.3156 8.76539 19.9606 8.41036L15.5894 4.03916Z" fill="#fff"/>
<path d="M14.2395 5.51765L8.5826 9.76029L9.2897 10.4674L14.9466 6.22476L14.2395 5.51765Z" fill="#fff"/>
<path d="M14.2395 15.4171L18.4821 9.76029L17.775 9.05319L13.5323 14.71L14.2395 15.4171Z" fill="#fff"/>
<path d="M8.22904 15.0636L2.92574 20.3669C2.73048 20.5622 2.73048 20.8787 2.92574 21.074C3.12101 21.2693 3.43759 21.2693 3.63285 21.074L8.93615 15.7707L8.22904 15.0636Z" fill="#ffffff"/>
<path d="M14.9466 6.22476L9.2897 10.4674L13.5323 14.71L17.775 9.05319L14.9466 6.22476Z" fill="#fff"/>
<path d="M7.80815 10.4001L13.5997 16.1916C14.3435 16.9355 14.3435 18.1415 13.5997 18.8853C13.5625 18.9225 13.5022 18.9225 13.465 18.8853L5.11441 10.5347C5.07721 10.4976 5.07721 10.4373 5.11441 10.4001C5.85826 9.6562 7.06429 9.6562 7.80815 10.4001Z" fill="#fff"/>
<path d="M15.5894 4.03916L19.9606 8.41036C20.3156 8.76539 20.3156 9.34099 19.9606 9.69601C19.9251 9.73151 19.8675 9.73151 19.832 9.69601L14.3037 4.16772C14.2682 4.13222 14.2682 4.07466 14.3037 4.03916C14.6588 3.68414 15.2344 3.68414 15.5894 4.03916Z" fill="#fff"/>
</svg>
