<svg width="24" height="24" viewBox="0 0 24 24" fill="none" xmlns="http://www.w3.org/2000/svg">
<path fill-rule="evenodd" clip-rule="evenodd" d="M10.5 3.12436V11.4999C10.5 12.4427 10.5 12.9141 10.7929 13.207C11.0858 13.4999 11.5572 13.4999 12.5 13.4999H20.8756C20.9305 13.1723 20.9678 12.8386 20.9863 12.4999H12.5C12.0286 12.4999 11.7929 12.4999 11.6464 12.3535C11.5 12.207 11.5 11.9713 11.5 11.4999V3.01358C11.1613 3.03212 10.8277 3.06939 10.5 3.12436Z" fill="#fff"/>
<path d="M2 11.9999C2 17.5228 6.47715 21.9999 12 21.9999C17.0143 21.9999 21.1667 18.3093 21.8888 13.4962C21.9697 12.9573 21.5312 12.4999 20.9863 12.4999C20.9678 12.8386 20.9305 13.1723 20.8756 13.4999C20.1614 17.7565 16.4595 20.9999 12 20.9999C7.02944 20.9999 3 16.9705 3 11.9999C3 7.54043 6.24343 3.83848 10.5 3.12436C10.8277 3.06939 11.1613 3.03212 11.5 3.01358C11.5 2.46869 11.0426 2.03026 10.5038 2.11111C5.69067 2.83323 2 6.98558 2 11.9999Z" fill="#fff"/>
<path fill-rule="evenodd" clip-rule="evenodd" d="M13 1C18.5228 1 23 5.47715 23 11C23 11.2801 22.7677 11.5 22.4875 11.5H14.5C13.5572 11.5 13.0858 11.5 12.7929 11.2071C12.5 10.9142 12.5 10.4428 12.5 9.5V1.51248C12.5 1.23234 12.7199 1 13 1ZM14.5 10.5C14.0286 10.5 13.7929 10.5 13.6464 10.3536C13.5 10.2071 13.5 9.9714 13.5 9.5V2.22491C13.5 2.12535 13.5 2.07557 13.5321 2.04588C13.5642 2.0162 13.6132 2.02003 13.7113 2.0277C18.1147 2.37198 21.628 5.88533 21.9723 10.2887C21.98 10.3868 21.9838 10.4358 21.9541 10.4679C21.9244 10.5 21.8746 10.5 21.7751 10.5H14.5Z" fill="#fff"/>
</svg>
