<svg width="24" height="24" viewBox="0 0 24 24" fill="none" xmlns="http://www.w3.org/2000/svg">
<g id="Grid-rectangle-6">
<g id="Vector">
<path fill-rule="evenodd" clip-rule="evenodd" d="M3.20096 15.75C3 16.0981 3 16.5654 3 17.5C3 18.4346 3 18.9019 3.20096 19.25C3.33261 19.478 3.52197 19.6674 3.75 19.799C4.09808 20 4.56538 20 5.5 20H8.5C9.43462 20 9.90192 20 10.25 19.799C10.478 19.6674 10.6674 19.478 10.799 19.25C11 18.9019 11 18.4346 11 17.5C11 16.5654 11 16.0981 10.799 15.75C10.6674 15.522 10.478 15.3326 10.25 15.201C9.90192 15 9.43462 15 8.5 15H5.5C4.56538 15 4.09808 15 3.75 15.201C3.52197 15.3326 3.33261 15.522 3.20096 15.75ZM8.5 16H5.5C4.79289 16 4.43934 16 4.21967 16.2197C4 16.4393 4 16.7929 4 17.5C4 18.2071 4 18.5607 4.21967 18.7803C4.43934 19 4.79289 19 5.5 19H8.5C9.20711 19 9.56066 19 9.78033 18.7803C10 18.5607 10 18.2071 10 17.5C10 16.7929 10 16.4393 9.78033 16.2197C9.56066 16 9.20711 16 8.5 16Z" fill="#fff"/>
<path fill-rule="evenodd" clip-rule="evenodd" d="M3.20096 9.75C3 10.0981 3 10.5654 3 11.5C3 12.4346 3 12.9019 3.20096 13.25C3.33261 13.478 3.52197 13.6674 3.75 13.799C4.09808 14 4.56538 14 5.5 14H8.5C9.43462 14 9.90192 14 10.25 13.799C10.478 13.6674 10.6674 13.478 10.799 13.25C11 12.9019 11 12.4346 11 11.5C11 10.5654 11 10.0981 10.799 9.75C10.6674 9.52197 10.478 9.33261 10.25 9.20096C9.90192 9 9.43462 9 8.5 9H5.5C4.56538 9 4.09808 9 3.75 9.20096C3.52197 9.33261 3.33261 9.52197 3.20096 9.75ZM8.5 10H5.5C4.79289 10 4.43934 10 4.21967 10.2197C4 10.4393 4 10.7929 4 11.5C4 12.2071 4 12.5607 4.21967 12.7803C4.43934 13 4.79289 13 5.5 13H8.5C9.20711 13 9.56066 13 9.78033 12.7803C10 12.5607 10 12.2071 10 11.5C10 10.7929 10 10.4393 9.78033 10.2197C9.56066 10 9.20711 10 8.5 10Z" fill="#fff"/>
<path fill-rule="evenodd" clip-rule="evenodd" d="M3.20096 3.75C3 4.09808 3 4.56538 3 5.5C3 6.43462 3 6.90192 3.20096 7.25C3.33261 7.47803 3.52197 7.66739 3.75 7.79904C4.09808 8 4.56538 8 5.5 8H8.5C9.43462 8 9.90192 8 10.25 7.79904C10.478 7.66739 10.6674 7.47803 10.799 7.25C11 6.90192 11 6.43462 11 5.5C11 4.56538 11 4.09808 10.799 3.75C10.6674 3.52197 10.478 3.33261 10.25 3.20096C9.90192 3 9.43462 3 8.5 3H5.5C4.56538 3 4.09808 3 3.75 3.20096C3.52197 3.33261 3.33261 3.52197 3.20096 3.75ZM8.5 4H5.5C4.79289 4 4.43934 4 4.21967 4.21967C4 4.43934 4 4.79289 4 5.5C4 6.20711 4 6.56066 4.21967 6.78033C4.43934 7 4.79289 7 5.5 7H8.5C9.20711 7 9.56066 7 9.78033 6.78033C10 6.56066 10 6.20711 10 5.5C10 4.79289 10 4.43934 9.78033 4.21967C9.56066 4 9.20711 4 8.5 4Z" fill="#fff"/>
<path fill-rule="evenodd" clip-rule="evenodd" d="M12.201 3.75C12 4.09808 12 4.56538 12 5.5C12 6.43462 12 6.90192 12.201 7.25C12.3326 7.47803 12.522 7.66739 12.75 7.79904C13.0981 8 13.5654 8 14.5 8H17.5C18.4346 8 18.9019 8 19.25 7.79904C19.478 7.66739 19.6674 7.47803 19.799 7.25C20 6.90192 20 6.43462 20 5.5C20 4.56538 20 4.09808 19.799 3.75C19.6674 3.52197 19.478 3.33261 19.25 3.20096C18.9019 3 18.4346 3 17.5 3H14.5C13.5654 3 13.0981 3 12.75 3.20096C12.522 3.33261 12.3326 3.52197 12.201 3.75ZM17.5 4H14.5C13.7929 4 13.4393 4 13.2197 4.21967C13 4.43934 13 4.79289 13 5.5C13 6.20711 13 6.56066 13.2197 6.78033C13.4393 7 13.7929 7 14.5 7H17.5C18.2071 7 18.5607 7 18.7803 6.78033C19 6.56066 19 6.20711 19 5.5C19 4.79289 19 4.43934 18.7803 4.21967C18.5607 4 18.2071 4 17.5 4Z" fill="#fff"/>
<path fill-rule="evenodd" clip-rule="evenodd" d="M12.201 15.75C12 16.0981 12 16.5654 12 17.5C12 18.4346 12 18.9019 12.201 19.25C12.3326 19.478 12.522 19.6674 12.75 19.799C13.0981 20 13.5654 20 14.5 20H17.5C18.4346 20 18.9019 20 19.25 19.799C19.478 19.6674 19.6674 19.478 19.799 19.25C20 18.9019 20 18.4346 20 17.5C20 16.5654 20 16.0981 19.799 15.75C19.6674 15.522 19.478 15.3326 19.25 15.201C18.9019 15 18.4346 15 17.5 15H14.5C13.5654 15 13.0981 15 12.75 15.201C12.522 15.3326 12.3326 15.522 12.201 15.75ZM17.5 16H14.5C13.7929 16 13.4393 16 13.2197 16.2197C13 16.4393 13 16.7929 13 17.5C13 18.2071 13 18.5607 13.2197 18.7803C13.4393 19 13.7929 19 14.5 19H17.5C18.2071 19 18.5607 19 18.7803 18.7803C19 18.5607 19 18.2071 19 17.5C19 16.7929 19 16.4393 18.7803 16.2197C18.5607 16 18.2071 16 17.5 16Z" fill="#fff"/>
<path fill-rule="evenodd" clip-rule="evenodd" d="M12.201 9.75C12 10.0981 12 10.5654 12 11.5C12 12.4346 12 12.9019 12.201 13.25C12.3326 13.478 12.522 13.6674 12.75 13.799C13.0981 14 13.5654 14 14.5 14H17.5C18.4346 14 18.9019 14 19.25 13.799C19.478 13.6674 19.6674 13.478 19.799 13.25C20 12.9019 20 12.4346 20 11.5C20 10.5654 20 10.0981 19.799 9.75C19.6674 9.52197 19.478 9.33261 19.25 9.20096C18.9019 9 18.4346 9 17.5 9H14.5C13.5654 9 13.0981 9 12.75 9.20096C12.522 9.33261 12.3326 9.52197 12.201 9.75ZM17.5 10H14.5C13.7929 10 13.4393 10 13.2197 10.2197C13 10.4393 13 10.7929 13 11.5C13 12.2071 13 12.5607 13.2197 12.7803C13.4393 13 13.7929 13 14.5 13H17.5C18.2071 13 18.5607 13 18.7803 12.7803C19 12.5607 19 12.2071 19 11.5C19 10.7929 19 10.4393 18.7803 10.2197C18.5607 10 18.2071 10 17.5 10Z" fill="#fff"/>
</g>
</g>
</svg>
