<svg width="24" height="24" viewBox="0 0 24 24" fill="none" xmlns="http://www.w3.org/2000/svg">
<path d="M14.3035 16.402C14.3887 16.2544 14.4845 16.1169 14.5894 15.9897C15.0476 15.4344 15.6795 15.077 16.3578 14.9516C16.687 14.8908 17.0272 14.8846 17.3638 14.937C17.7195 14.9923 18.0712 15.1131 18.4016 15.3039C19.8365 16.1323 20.3281 17.9671 19.4997 19.402C18.6712 20.8368 16.8365 21.3285 15.4016 20.5C14.1142 19.7568 13.5862 18.2035 14.0894 16.8557C14.1471 16.7013 14.2183 16.5495 14.3035 16.402ZM18.6331 18.9017C19.1852 17.9454 18.8576 16.7226 17.9013 16.1704C16.945 15.6183 15.7222 15.946 15.1701 16.9023C14.6179 17.8586 14.9456 19.0814 15.9019 19.6335C16.8582 20.1856 18.081 19.858 18.6331 18.9017Z" fill="#fff"/>
<path d="M3.91121 10.402C4.73964 8.96709 6.57441 8.47546 8.00929 9.30389C8.33188 9.49014 8.6068 9.72725 8.82975 9.99925C9.04932 10.2671 9.2185 10.5688 9.33319 10.8891C9.56681 11.5414 9.57441 12.2708 9.32144 12.9482C9.26377 13.1027 9.19254 13.2544 9.10737 13.402C9.02219 13.5495 8.92637 13.6871 8.82144 13.8142C7.90587 14.924 6.29663 15.2433 5.00929 14.5C3.57441 13.6716 3.08279 11.8368 3.91121 10.402ZM8.24082 12.9017C8.79294 11.9454 8.46529 10.7226 7.50899 10.1704C6.55269 9.61832 5.32988 9.94597 4.77776 10.9023C4.22564 11.8586 4.55329 13.0814 5.50959 13.6335C6.46589 14.1856 7.6887 13.858 8.24082 12.9017Z" fill="#fff"/>
<path d="M9.10737 13.402C9.02219 13.5495 8.92637 13.6871 8.82144 13.8142L14.0894 16.8557C14.1471 16.7013 14.2183 16.5495 14.3035 16.402C14.3887 16.2544 14.4845 16.1169 14.5894 15.9897L9.32144 12.9482C9.26377 13.1027 9.19254 13.2544 9.10737 13.402Z" fill="#fff"/>
<path d="M14.1074 4.74171C14.9358 3.30683 16.7706 2.81521 18.2054 3.64364C19.6403 4.47206 20.1319 6.30683 19.3035 7.74171C18.8502 8.52694 18.0954 9.02969 17.2698 9.1882C16.9409 9.25135 16.6007 9.25986 16.2639 9.20985C15.9012 9.15599 15.5423 9.03426 15.2054 8.83979C14.8522 8.63586 14.5562 8.37095 14.3229 8.06604C14.1126 7.7912 13.9534 7.48386 13.8492 7.15938C13.5995 6.38145 13.6667 5.505 14.1074 4.74171ZM18.4409 7.2437C18.9943 6.28521 18.6659 5.0596 17.7074 4.50622C16.7489 3.95284 15.5233 4.28124 14.97 5.23973C14.4166 6.19821 14.745 7.42382 15.7035 7.9772C16.6619 8.53058 17.8876 8.20218 18.4409 7.2437Z" fill="#fff"/>
<path d="M13.8492 7.15938L8.82975 9.99925C9.04932 10.2671 9.2185 10.5688 9.33319 10.8891L14.3229 8.06604C14.1126 7.7912 13.9534 7.48386 13.8492 7.15938Z" fill="#fff"/>
</svg>
