<svg width="24" height="24" viewBox="0 0 24 24" fill="none" xmlns="http://www.w3.org/2000/svg">
<g id="Shipping-truck-fast-back">
<g id="Vector">
<path fill-rule="evenodd" clip-rule="evenodd" d="M6 20C6.93192 20 7.71497 19.3626 7.93699 18.5C7.97812 18.3402 8 18.1726 8 18C8 17.8274 7.97812 17.6598 7.93699 17.5C7.71497 16.6374 6.93192 16 6 16C5.14189 16 4.41 16.5404 4.12612 17.2995C4.04458 17.5175 4 17.7535 4 18C4 18.1156 4.00981 18.229 4.02866 18.3393C4.18978 19.2822 5.01107 20 6 20ZM6 19C6.37014 19 6.69331 18.7989 6.86622 18.5C6.9513 18.3529 7 18.1821 7 18C7 17.8179 6.9513 17.6471 6.86622 17.5C6.69331 17.2011 6.37014 17 6 17C5.62986 17 5.30669 17.2011 5.13378 17.5C5.0487 17.6471 5 17.8179 5 18C5 18.1821 5.0487 18.3529 5.13378 18.5C5.30669 18.7989 5.62986 19 6 19Z" fill="#fff"/>
<path fill-rule="evenodd" clip-rule="evenodd" d="M18 20C19.1046 20 20 19.1046 20 18C20 16.8954 19.1046 16 18 16C16.8954 16 16 16.8954 16 18C16 19.1046 16.8954 20 18 20ZM18 19C18.3701 19 18.6933 18.7989 18.8662 18.5C18.9513 18.3529 19 18.1821 19 18C19 17.8179 18.9513 17.6471 18.8662 17.5C18.6933 17.2011 18.3701 17 18 17C17.6299 17 17.3067 17.2011 17.1338 17.5C17.0487 17.6471 17 17.8179 17 18C17 18.1821 17.0487 18.3529 17.1338 18.5C17.3067 18.7989 17.6299 19 18 19Z" fill="#fff"/>
<path fill-rule="evenodd" clip-rule="evenodd" d="M16 8H18C20.2091 8 22 9.79086 22 12V16.5C22 17.6046 21.1046 18.5 20 18.5H18.8662C18.9513 18.3529 19 18.1821 19 18C19 17.8179 18.9513 17.6471 18.8662 17.5H20C20.5523 17.5 21 17.0523 21 16.5V12C21 10.3431 19.6569 9 18 9H16V8ZM17.1338 17.5H16V18.5H17.1338C17.0487 18.3529 17 18.1821 17 18C17 17.8179 17.0487 17.6471 17.1338 17.5Z" fill="#fff"/>
<path d="M2 7.5C2 7.22386 2.22386 7 2.5 7H5.5C5.77614 7 6 7.22386 6 7.5C6 7.77614 5.77614 8 5.5 8H2.5C2.22386 8 2 7.77614 2 7.5Z" fill="#fff"/>
<path d="M2 10.5C2 10.2239 2.22386 10 2.5 10H7.5C7.77614 10 8 10.2239 8 10.5C8 10.7761 7.77614 11 7.5 11H2.5C2.22386 11 2 10.7761 2 10.5Z" fill="#fff"/>
<path d="M2 13.5C2 13.2239 2.22386 13 2.5 13H9.5C9.77614 13 10 13.2239 10 13.5C10 13.7761 9.77614 14 9.5 14H2.5C2.22386 14 2 13.7761 2 13.5Z" fill="#fff"/>
<path d="M14 4H4C3.25972 4 2.61337 4.4022 2.26756 5H4H14C14.5523 5 15 5.44772 15 6V17.5H7.93699C7.97812 17.6598 8 17.8274 8 18C8 18.1726 7.97812 18.3402 7.93699 18.5H16V18V17.5V9V8V6C16 4.89543 15.1046 4 14 4Z" fill="#fff"/>
<path d="M4.02866 18.3393C4.00981 18.229 4 18.1156 4 18C4 17.7535 4.04458 17.5175 4.12612 17.2995C3.72516 17.1044 3.39916 16.7793 3.20299 16.379C3.09818 16.1651 2.89653 16 2.65835 16C2.33556 16 2.08783 16.293 2.20554 16.5935C2.52572 17.4111 3.19431 18.0539 4.02866 18.3393Z" fill="#fff"/>
</g>
</g>
</svg>
